<mxfile host="app.diagrams.net" modified="2024-03-18T18:31:59.620Z" agent="Mozilla/5.0 (Windows NT 10.0; Win64; x64; rv:123.0) Gecko/20100101 Firefox/123.0" etag="3pVTp9u781FrRa_ReRjh" version="24.0.7" type="github">
  <diagram name="Page-1" id="M4nyXgz_OTvfZ6UV233X">
    <mxGraphModel dx="1434" dy="782" grid="1" gridSize="10" guides="1" tooltips="1" connect="1" arrows="1" fold="1" page="1" pageScale="1" pageWidth="827" pageHeight="1169" math="0" shadow="0">
      <root>
        <mxCell id="0" />
        <mxCell id="1" parent="0" />
        <mxCell id="HMEKJtXv6nUC9A5PgHyP-1" value="&lt;div&gt;Cl_BDD&lt;/div&gt;" style="swimlane;fontStyle=1;align=center;verticalAlign=top;childLayout=stackLayout;horizontal=1;startSize=26;horizontalStack=0;resizeParent=1;resizeParentMax=0;resizeLast=0;collapsible=1;marginBottom=0;whiteSpace=wrap;html=1;fillColor=#d5e8d4;strokeColor=#82b366;" parent="1" vertex="1">
          <mxGeometry x="480" y="50" width="230" height="200" as="geometry" />
        </mxCell>
        <mxCell id="HMEKJtXv6nUC9A5PgHyP-2" value="+&lt;span style=&quot;white-space: pre;&quot;&gt;&#x9;&lt;/span&gt;MaConnexion: SQLiteConnection" style="text;strokeColor=none;fillColor=none;align=left;verticalAlign=top;spacingLeft=4;spacingRight=4;overflow=hidden;rotatable=0;points=[[0,0.5],[1,0.5]];portConstraint=eastwest;whiteSpace=wrap;html=1;" parent="HMEKJtXv6nUC9A5PgHyP-1" vertex="1">
          <mxGeometry y="26" width="230" height="24" as="geometry" />
        </mxCell>
        <mxCell id="HMEKJtXv6nUC9A5PgHyP-3" value="" style="line;strokeWidth=1;fillColor=none;align=left;verticalAlign=middle;spacingTop=-1;spacingLeft=3;spacingRight=3;rotatable=0;labelPosition=right;points=[];portConstraint=eastwest;strokeColor=inherit;" parent="HMEKJtXv6nUC9A5PgHyP-1" vertex="1">
          <mxGeometry y="50" width="230" height="8" as="geometry" />
        </mxCell>
        <mxCell id="HMEKJtXv6nUC9A5PgHyP-4" value="&lt;div&gt;+&lt;span style=&quot;white-space: pre;&quot;&gt;&#x9;&lt;/span&gt;Cl_BDD() : void&lt;/div&gt;" style="text;strokeColor=#82b366;fillColor=#d5e8d4;align=left;verticalAlign=top;spacingLeft=4;spacingRight=4;overflow=hidden;rotatable=0;points=[[0,0.5],[1,0.5]];portConstraint=eastwest;whiteSpace=wrap;html=1;" parent="HMEKJtXv6nUC9A5PgHyP-1" vertex="1">
          <mxGeometry y="58" width="230" height="22" as="geometry" />
        </mxCell>
        <mxCell id="ep3cFhaID-RFhSAYfXqb-8" value="+&lt;span style=&quot;white-space: pre;&quot;&gt;&#x9;&lt;/span&gt;abstract Insert() : void" style="text;strokeColor=#d79b00;fillColor=#ffe6cc;align=left;verticalAlign=top;spacingLeft=4;spacingRight=4;overflow=hidden;rotatable=0;points=[[0,0.5],[1,0.5]];portConstraint=eastwest;whiteSpace=wrap;html=1;" vertex="1" parent="HMEKJtXv6nUC9A5PgHyP-1">
          <mxGeometry y="80" width="230" height="24" as="geometry" />
        </mxCell>
        <mxCell id="ep3cFhaID-RFhSAYfXqb-9" value="+&lt;span style=&quot;white-space: pre;&quot;&gt;&#x9;&lt;/span&gt;abstract Update() : void" style="text;strokeColor=#d79b00;fillColor=#ffe6cc;align=left;verticalAlign=top;spacingLeft=4;spacingRight=4;overflow=hidden;rotatable=0;points=[[0,0.5],[1,0.5]];portConstraint=eastwest;whiteSpace=wrap;html=1;" vertex="1" parent="HMEKJtXv6nUC9A5PgHyP-1">
          <mxGeometry y="104" width="230" height="24" as="geometry" />
        </mxCell>
        <mxCell id="ep3cFhaID-RFhSAYfXqb-10" value="+&lt;span style=&quot;white-space: pre;&quot;&gt;&#x9;&lt;/span&gt;abstract Delete() : void" style="text;strokeColor=#d79b00;fillColor=#ffe6cc;align=left;verticalAlign=top;spacingLeft=4;spacingRight=4;overflow=hidden;rotatable=0;points=[[0,0.5],[1,0.5]];portConstraint=eastwest;whiteSpace=wrap;html=1;" vertex="1" parent="HMEKJtXv6nUC9A5PgHyP-1">
          <mxGeometry y="128" width="230" height="24" as="geometry" />
        </mxCell>
        <mxCell id="ep3cFhaID-RFhSAYfXqb-11" value="+ &lt;span style=&quot;white-space: pre;&quot;&gt;&#x9;&lt;/span&gt;&lt;span style=&quot;white-space: pre;&quot;&gt;&lt;/span&gt;abstract ToString() : string" style="text;strokeColor=#d79b00;fillColor=#ffe6cc;align=left;verticalAlign=top;spacingLeft=4;spacingRight=4;overflow=hidden;rotatable=0;points=[[0,0.5],[1,0.5]];portConstraint=eastwest;whiteSpace=wrap;html=1;" vertex="1" parent="HMEKJtXv6nUC9A5PgHyP-1">
          <mxGeometry y="152" width="230" height="24" as="geometry" />
        </mxCell>
        <mxCell id="ep3cFhaID-RFhSAYfXqb-12" value="+ &lt;span style=&quot;white-space: pre;&quot;&gt;&#x9;&lt;/span&gt;&lt;span style=&quot;white-space: pre;&quot;&gt;&lt;/span&gt;abstract ValeurCorrecte() : bool" style="text;strokeColor=#d79b00;fillColor=#ffe6cc;align=left;verticalAlign=top;spacingLeft=4;spacingRight=4;overflow=hidden;rotatable=0;points=[[0,0.5],[1,0.5]];portConstraint=eastwest;whiteSpace=wrap;html=1;" vertex="1" parent="HMEKJtXv6nUC9A5PgHyP-1">
          <mxGeometry y="176" width="230" height="24" as="geometry" />
        </mxCell>
        <mxCell id="HMEKJtXv6nUC9A5PgHyP-6" value="&lt;div&gt;Cl_ConnexionBDD&lt;br&gt;&lt;/div&gt;" style="swimlane;fontStyle=1;align=center;verticalAlign=top;childLayout=stackLayout;horizontal=1;startSize=26;horizontalStack=0;resizeParent=1;resizeParentMax=0;resizeLast=0;collapsible=1;marginBottom=0;whiteSpace=wrap;html=1;fillColor=#d5e8d4;strokeColor=#82b366;" parent="1" vertex="1">
          <mxGeometry x="20" y="460" width="230" height="178" as="geometry" />
        </mxCell>
        <mxCell id="HMEKJtXv6nUC9A5PgHyP-8" value="" style="line;strokeWidth=1;fillColor=none;align=left;verticalAlign=middle;spacingTop=-1;spacingLeft=3;spacingRight=3;rotatable=0;labelPosition=right;points=[];portConstraint=eastwest;strokeColor=inherit;" parent="HMEKJtXv6nUC9A5PgHyP-6" vertex="1">
          <mxGeometry y="26" width="230" height="8" as="geometry" />
        </mxCell>
        <mxCell id="HMEKJtXv6nUC9A5PgHyP-9" value="&lt;div&gt;+&lt;span style=&quot;white-space: pre;&quot;&gt;&#x9;&lt;/span&gt;GetConnexion: SQLiteConnection&lt;/div&gt;" style="text;strokeColor=#9673a6;fillColor=#e1d5e7;align=left;verticalAlign=top;spacingLeft=4;spacingRight=4;overflow=hidden;rotatable=0;points=[[0,0.5],[1,0.5]];portConstraint=eastwest;whiteSpace=wrap;html=1;" parent="HMEKJtXv6nUC9A5PgHyP-6" vertex="1">
          <mxGeometry y="34" width="230" height="24" as="geometry" />
        </mxCell>
        <mxCell id="ep3cFhaID-RFhSAYfXqb-14" value="+&lt;span style=&quot;white-space: pre;&quot;&gt;&#x9;&lt;/span&gt;Insert() : void" style="text;strokeColor=#d6b656;fillColor=#fff2cc;align=left;verticalAlign=top;spacingLeft=4;spacingRight=4;overflow=hidden;rotatable=0;points=[[0,0.5],[1,0.5]];portConstraint=eastwest;whiteSpace=wrap;html=1;" vertex="1" parent="HMEKJtXv6nUC9A5PgHyP-6">
          <mxGeometry y="58" width="230" height="24" as="geometry" />
        </mxCell>
        <mxCell id="ep3cFhaID-RFhSAYfXqb-15" value="+&lt;span style=&quot;white-space: pre;&quot;&gt;&#x9;&lt;/span&gt;Update() : void" style="text;strokeColor=#d6b656;fillColor=#fff2cc;align=left;verticalAlign=top;spacingLeft=4;spacingRight=4;overflow=hidden;rotatable=0;points=[[0,0.5],[1,0.5]];portConstraint=eastwest;whiteSpace=wrap;html=1;" vertex="1" parent="HMEKJtXv6nUC9A5PgHyP-6">
          <mxGeometry y="82" width="230" height="24" as="geometry" />
        </mxCell>
        <mxCell id="ep3cFhaID-RFhSAYfXqb-16" value="+&lt;span style=&quot;white-space: pre;&quot;&gt;&#x9;&lt;/span&gt;Delete() : void" style="text;strokeColor=#d6b656;fillColor=#fff2cc;align=left;verticalAlign=top;spacingLeft=4;spacingRight=4;overflow=hidden;rotatable=0;points=[[0,0.5],[1,0.5]];portConstraint=eastwest;whiteSpace=wrap;html=1;" vertex="1" parent="HMEKJtXv6nUC9A5PgHyP-6">
          <mxGeometry y="106" width="230" height="24" as="geometry" />
        </mxCell>
        <mxCell id="ep3cFhaID-RFhSAYfXqb-17" value="+ &lt;span style=&quot;white-space: pre;&quot;&gt;&#x9;&lt;/span&gt;ToString() : string" style="text;strokeColor=#d6b656;fillColor=#fff2cc;align=left;verticalAlign=top;spacingLeft=4;spacingRight=4;overflow=hidden;rotatable=0;points=[[0,0.5],[1,0.5]];portConstraint=eastwest;whiteSpace=wrap;html=1;" vertex="1" parent="HMEKJtXv6nUC9A5PgHyP-6">
          <mxGeometry y="130" width="230" height="24" as="geometry" />
        </mxCell>
        <mxCell id="ep3cFhaID-RFhSAYfXqb-18" value="&lt;div&gt;+&lt;span style=&quot;white-space: pre;&quot;&gt;&#x9;&lt;/span&gt;ValeurCorrecte(): bool&lt;br&gt;&lt;/div&gt;" style="text;strokeColor=#d6b656;fillColor=#fff2cc;align=left;verticalAlign=top;spacingLeft=4;spacingRight=4;overflow=hidden;rotatable=0;points=[[0,0.5],[1,0.5]];portConstraint=eastwest;whiteSpace=wrap;html=1;" vertex="1" parent="HMEKJtXv6nUC9A5PgHyP-6">
          <mxGeometry y="154" width="230" height="24" as="geometry" />
        </mxCell>
        <mxCell id="HMEKJtXv6nUC9A5PgHyP-10" value="" style="endArrow=none;html=1;edgeStyle=orthogonalEdgeStyle;rounded=0;entryX=0.5;entryY=0;entryDx=0;entryDy=0;" parent="1" target="HMEKJtXv6nUC9A5PgHyP-6" edge="1">
          <mxGeometry relative="1" as="geometry">
            <mxPoint x="538" y="250" as="sourcePoint" />
            <mxPoint x="190" y="340" as="targetPoint" />
            <Array as="points">
              <mxPoint x="538" y="310" />
              <mxPoint x="135" y="310" />
            </Array>
          </mxGeometry>
        </mxCell>
        <mxCell id="HMEKJtXv6nUC9A5PgHyP-11" value="parent" style="edgeLabel;resizable=0;html=1;align=left;verticalAlign=bottom;" parent="HMEKJtXv6nUC9A5PgHyP-10" connectable="0" vertex="1">
          <mxGeometry x="-1" relative="1" as="geometry">
            <mxPoint x="-40" y="20" as="offset" />
          </mxGeometry>
        </mxCell>
        <mxCell id="HMEKJtXv6nUC9A5PgHyP-12" value="child" style="edgeLabel;resizable=0;html=1;align=right;verticalAlign=bottom;" parent="HMEKJtXv6nUC9A5PgHyP-10" connectable="0" vertex="1">
          <mxGeometry x="1" relative="1" as="geometry">
            <mxPoint x="-5" as="offset" />
          </mxGeometry>
        </mxCell>
        <mxCell id="ep3cFhaID-RFhSAYfXqb-1" value="&lt;div&gt;Cl_GroupeMessage&lt;/div&gt;" style="swimlane;fontStyle=1;align=center;verticalAlign=top;childLayout=stackLayout;horizontal=1;startSize=26;horizontalStack=0;resizeParent=1;resizeParentMax=0;resizeLast=0;collapsible=1;marginBottom=0;whiteSpace=wrap;html=1;fillColor=#d5e8d4;strokeColor=#82b366;" vertex="1" parent="1">
          <mxGeometry x="290" y="460" width="310" height="324" as="geometry" />
        </mxCell>
        <mxCell id="ep3cFhaID-RFhSAYfXqb-5" value="&lt;div&gt;-&lt;span style=&quot;white-space: pre;&quot;&gt;&#x9;&lt;/span&gt;_IdGroupeMessage : int&lt;/div&gt;&lt;div&gt;&lt;br&gt;&lt;/div&gt;" style="text;strokeColor=none;fillColor=none;align=left;verticalAlign=top;spacingLeft=4;spacingRight=4;overflow=hidden;rotatable=0;points=[[0,0.5],[1,0.5]];portConstraint=eastwest;whiteSpace=wrap;html=1;" vertex="1" parent="ep3cFhaID-RFhSAYfXqb-1">
          <mxGeometry y="26" width="310" height="24" as="geometry" />
        </mxCell>
        <mxCell id="ep3cFhaID-RFhSAYfXqb-19" value="&lt;div&gt;-&lt;span style=&quot;white-space: pre;&quot;&gt;&#x9;&lt;/span&gt;_LabelGroupeMessage : string&lt;/div&gt;" style="text;strokeColor=none;fillColor=none;align=left;verticalAlign=top;spacingLeft=4;spacingRight=4;overflow=hidden;rotatable=0;points=[[0,0.5],[1,0.5]];portConstraint=eastwest;whiteSpace=wrap;html=1;" vertex="1" parent="ep3cFhaID-RFhSAYfXqb-1">
          <mxGeometry y="50" width="310" height="24" as="geometry" />
        </mxCell>
        <mxCell id="ep3cFhaID-RFhSAYfXqb-2" value="" style="line;strokeWidth=1;fillColor=none;align=left;verticalAlign=middle;spacingTop=-1;spacingLeft=3;spacingRight=3;rotatable=0;labelPosition=right;points=[];portConstraint=eastwest;strokeColor=inherit;" vertex="1" parent="ep3cFhaID-RFhSAYfXqb-1">
          <mxGeometry y="74" width="310" height="8" as="geometry" />
        </mxCell>
        <mxCell id="ep3cFhaID-RFhSAYfXqb-3" value="&lt;div&gt;+&lt;span style=&quot;white-space: pre;&quot;&gt;&#x9;Cl_GroupeMessage(int IdGroupeMessageRecu, &lt;/span&gt;&lt;/div&gt;&lt;div&gt;&lt;span style=&quot;white-space: pre;&quot;&gt;string LabelGroupeMessageRecu) : void&lt;/span&gt;&lt;/div&gt;" style="text;strokeColor=#82b366;fillColor=#d5e8d4;align=left;verticalAlign=top;spacingLeft=4;spacingRight=4;overflow=hidden;rotatable=0;points=[[0,0.5],[1,0.5]];portConstraint=eastwest;whiteSpace=wrap;html=1;" vertex="1" parent="ep3cFhaID-RFhSAYfXqb-1">
          <mxGeometry y="82" width="310" height="38" as="geometry" />
        </mxCell>
        <mxCell id="ep3cFhaID-RFhSAYfXqb-20" value="&lt;div&gt;+&lt;span style=&quot;white-space: pre;&quot;&gt;&#x9;Get&lt;/span&gt;IdGroupeMessage : int&lt;/div&gt;&lt;div&gt;+&lt;span style=&quot;white-space: pre;&quot;&gt;&#x9;Set&lt;/span&gt;IdGroupeMessage : void&lt;/div&gt;" style="text;strokeColor=#9673a6;fillColor=#e1d5e7;align=left;verticalAlign=top;spacingLeft=4;spacingRight=4;overflow=hidden;rotatable=0;points=[[0,0.5],[1,0.5]];portConstraint=eastwest;whiteSpace=wrap;html=1;" vertex="1" parent="ep3cFhaID-RFhSAYfXqb-1">
          <mxGeometry y="120" width="310" height="44" as="geometry" />
        </mxCell>
        <mxCell id="ep3cFhaID-RFhSAYfXqb-21" value="&lt;div&gt;+&lt;span style=&quot;white-space: pre;&quot;&gt;&#x9;&lt;/span&gt;GetLabelGroupeMessage : int&lt;/div&gt;&lt;div&gt;+&lt;span style=&quot;white-space: pre;&quot;&gt;&#x9;&lt;/span&gt;SetLabelGroupeMessage : void&lt;/div&gt;" style="text;strokeColor=#9673a6;fillColor=#e1d5e7;align=left;verticalAlign=top;spacingLeft=4;spacingRight=4;overflow=hidden;rotatable=0;points=[[0,0.5],[1,0.5]];portConstraint=eastwest;whiteSpace=wrap;html=1;" vertex="1" parent="ep3cFhaID-RFhSAYfXqb-1">
          <mxGeometry y="164" width="310" height="40" as="geometry" />
        </mxCell>
        <mxCell id="ep3cFhaID-RFhSAYfXqb-24" value="+&lt;span style=&quot;white-space: pre;&quot;&gt;&#x9;&lt;/span&gt;Insert() : void" style="text;strokeColor=#d6b656;fillColor=#fff2cc;align=left;verticalAlign=top;spacingLeft=4;spacingRight=4;overflow=hidden;rotatable=0;points=[[0,0.5],[1,0.5]];portConstraint=eastwest;whiteSpace=wrap;html=1;" vertex="1" parent="ep3cFhaID-RFhSAYfXqb-1">
          <mxGeometry y="204" width="310" height="24" as="geometry" />
        </mxCell>
        <mxCell id="ep3cFhaID-RFhSAYfXqb-28" value="+&lt;span style=&quot;white-space: pre;&quot;&gt;&#x9;&lt;/span&gt;Update() : void" style="text;strokeColor=#d6b656;fillColor=#fff2cc;align=left;verticalAlign=top;spacingLeft=4;spacingRight=4;overflow=hidden;rotatable=0;points=[[0,0.5],[1,0.5]];portConstraint=eastwest;whiteSpace=wrap;html=1;" vertex="1" parent="ep3cFhaID-RFhSAYfXqb-1">
          <mxGeometry y="228" width="310" height="24" as="geometry" />
        </mxCell>
        <mxCell id="ep3cFhaID-RFhSAYfXqb-27" value="+&lt;span style=&quot;white-space: pre;&quot;&gt;&#x9;&lt;/span&gt;Delete() : void" style="text;strokeColor=#d6b656;fillColor=#fff2cc;align=left;verticalAlign=top;spacingLeft=4;spacingRight=4;overflow=hidden;rotatable=0;points=[[0,0.5],[1,0.5]];portConstraint=eastwest;whiteSpace=wrap;html=1;" vertex="1" parent="ep3cFhaID-RFhSAYfXqb-1">
          <mxGeometry y="252" width="310" height="24" as="geometry" />
        </mxCell>
        <mxCell id="ep3cFhaID-RFhSAYfXqb-26" value="+ &lt;span style=&quot;white-space: pre;&quot;&gt;&#x9;&lt;/span&gt;ToString() : string" style="text;strokeColor=#d6b656;fillColor=#fff2cc;align=left;verticalAlign=top;spacingLeft=4;spacingRight=4;overflow=hidden;rotatable=0;points=[[0,0.5],[1,0.5]];portConstraint=eastwest;whiteSpace=wrap;html=1;" vertex="1" parent="ep3cFhaID-RFhSAYfXqb-1">
          <mxGeometry y="276" width="310" height="24" as="geometry" />
        </mxCell>
        <mxCell id="ep3cFhaID-RFhSAYfXqb-25" value="&lt;div&gt;+&lt;span style=&quot;white-space: pre;&quot;&gt;&#x9;&lt;/span&gt;ValeurCorrecte(): bool&lt;br&gt;&lt;/div&gt;" style="text;strokeColor=#d6b656;fillColor=#fff2cc;align=left;verticalAlign=top;spacingLeft=4;spacingRight=4;overflow=hidden;rotatable=0;points=[[0,0.5],[1,0.5]];portConstraint=eastwest;whiteSpace=wrap;html=1;" vertex="1" parent="ep3cFhaID-RFhSAYfXqb-1">
          <mxGeometry y="300" width="310" height="24" as="geometry" />
        </mxCell>
        <mxCell id="ep3cFhaID-RFhSAYfXqb-29" value="" style="endArrow=none;html=1;edgeStyle=orthogonalEdgeStyle;rounded=0;entryX=0.5;entryY=0;entryDx=0;entryDy=0;exitX=0.5;exitY=1;exitDx=0;exitDy=0;" edge="1" parent="1" source="HMEKJtXv6nUC9A5PgHyP-1" target="ep3cFhaID-RFhSAYfXqb-1">
          <mxGeometry relative="1" as="geometry">
            <mxPoint x="290" y="340" as="sourcePoint" />
            <mxPoint x="450" y="340" as="targetPoint" />
            <Array as="points">
              <mxPoint x="595" y="390" />
              <mxPoint x="445" y="390" />
            </Array>
          </mxGeometry>
        </mxCell>
        <mxCell id="ep3cFhaID-RFhSAYfXqb-30" value="parent" style="edgeLabel;resizable=0;html=1;align=left;verticalAlign=bottom;" connectable="0" vertex="1" parent="ep3cFhaID-RFhSAYfXqb-29">
          <mxGeometry x="-1" relative="1" as="geometry">
            <mxPoint x="5" y="20" as="offset" />
          </mxGeometry>
        </mxCell>
        <mxCell id="ep3cFhaID-RFhSAYfXqb-31" value="child" style="edgeLabel;resizable=0;html=1;align=right;verticalAlign=bottom;" connectable="0" vertex="1" parent="ep3cFhaID-RFhSAYfXqb-29">
          <mxGeometry x="1" relative="1" as="geometry">
            <mxPoint x="-5" as="offset" />
          </mxGeometry>
        </mxCell>
        <mxCell id="ep3cFhaID-RFhSAYfXqb-32" value="Cl_TypeMessage" style="swimlane;fontStyle=1;align=center;verticalAlign=top;childLayout=stackLayout;horizontal=1;startSize=26;horizontalStack=0;resizeParent=1;resizeParentMax=0;resizeLast=0;collapsible=1;marginBottom=0;whiteSpace=wrap;html=1;fillColor=#d5e8d4;strokeColor=#82b366;" vertex="1" parent="1">
          <mxGeometry x="640" y="460" width="280" height="324" as="geometry" />
        </mxCell>
        <mxCell id="ep3cFhaID-RFhSAYfXqb-33" value="&lt;div&gt;-&lt;span style=&quot;white-space: pre;&quot;&gt;&#x9;&lt;/span&gt;_IdTypeMessage : int&lt;/div&gt;&lt;div&gt;&lt;br&gt;&lt;/div&gt;" style="text;strokeColor=none;fillColor=none;align=left;verticalAlign=top;spacingLeft=4;spacingRight=4;overflow=hidden;rotatable=0;points=[[0,0.5],[1,0.5]];portConstraint=eastwest;whiteSpace=wrap;html=1;" vertex="1" parent="ep3cFhaID-RFhSAYfXqb-32">
          <mxGeometry y="26" width="280" height="24" as="geometry" />
        </mxCell>
        <mxCell id="ep3cFhaID-RFhSAYfXqb-34" value="&lt;div&gt;-&lt;span style=&quot;white-space: pre;&quot;&gt;&#x9;&lt;/span&gt;_LabelTypeMessage : string&lt;/div&gt;" style="text;strokeColor=none;fillColor=none;align=left;verticalAlign=top;spacingLeft=4;spacingRight=4;overflow=hidden;rotatable=0;points=[[0,0.5],[1,0.5]];portConstraint=eastwest;whiteSpace=wrap;html=1;" vertex="1" parent="ep3cFhaID-RFhSAYfXqb-32">
          <mxGeometry y="50" width="280" height="24" as="geometry" />
        </mxCell>
        <mxCell id="ep3cFhaID-RFhSAYfXqb-35" value="" style="line;strokeWidth=1;fillColor=none;align=left;verticalAlign=middle;spacingTop=-1;spacingLeft=3;spacingRight=3;rotatable=0;labelPosition=right;points=[];portConstraint=eastwest;strokeColor=inherit;" vertex="1" parent="ep3cFhaID-RFhSAYfXqb-32">
          <mxGeometry y="74" width="280" height="8" as="geometry" />
        </mxCell>
        <mxCell id="ep3cFhaID-RFhSAYfXqb-36" value="&lt;div&gt;+&lt;span style=&quot;white-space: pre;&quot;&gt;&#x9;Cl_TypeMessage(int IdTypeMessageRecu, &lt;/span&gt;&lt;/div&gt;&lt;div&gt;&lt;span style=&quot;white-space: pre;&quot;&gt;string LabelTypeMessageRecu) : void&lt;/span&gt;&lt;/div&gt;" style="text;strokeColor=#82b366;fillColor=#d5e8d4;align=left;verticalAlign=top;spacingLeft=4;spacingRight=4;overflow=hidden;rotatable=0;points=[[0,0.5],[1,0.5]];portConstraint=eastwest;whiteSpace=wrap;html=1;" vertex="1" parent="ep3cFhaID-RFhSAYfXqb-32">
          <mxGeometry y="82" width="280" height="38" as="geometry" />
        </mxCell>
        <mxCell id="ep3cFhaID-RFhSAYfXqb-37" value="&lt;div&gt;+&lt;span style=&quot;white-space: pre;&quot;&gt;&#x9;Get&lt;/span&gt;IdTypeMessage : int&lt;/div&gt;&lt;div&gt;+&lt;span style=&quot;white-space: pre;&quot;&gt;&#x9;Set&lt;/span&gt;IdTypeMessage : void&lt;/div&gt;" style="text;strokeColor=#9673a6;fillColor=#e1d5e7;align=left;verticalAlign=top;spacingLeft=4;spacingRight=4;overflow=hidden;rotatable=0;points=[[0,0.5],[1,0.5]];portConstraint=eastwest;whiteSpace=wrap;html=1;" vertex="1" parent="ep3cFhaID-RFhSAYfXqb-32">
          <mxGeometry y="120" width="280" height="44" as="geometry" />
        </mxCell>
        <mxCell id="ep3cFhaID-RFhSAYfXqb-38" value="&lt;div&gt;+&lt;span style=&quot;white-space: pre;&quot;&gt;&#x9;&lt;/span&gt;GetLabelTypeMessage : int&lt;/div&gt;&lt;div&gt;+&lt;span style=&quot;white-space: pre;&quot;&gt;&#x9;&lt;/span&gt;SetLabelTypeMessage : void&lt;/div&gt;" style="text;strokeColor=#9673a6;fillColor=#e1d5e7;align=left;verticalAlign=top;spacingLeft=4;spacingRight=4;overflow=hidden;rotatable=0;points=[[0,0.5],[1,0.5]];portConstraint=eastwest;whiteSpace=wrap;html=1;" vertex="1" parent="ep3cFhaID-RFhSAYfXqb-32">
          <mxGeometry y="164" width="280" height="40" as="geometry" />
        </mxCell>
        <mxCell id="ep3cFhaID-RFhSAYfXqb-39" value="+&lt;span style=&quot;white-space: pre;&quot;&gt;&#x9;&lt;/span&gt;Insert() : void" style="text;strokeColor=#d6b656;fillColor=#fff2cc;align=left;verticalAlign=top;spacingLeft=4;spacingRight=4;overflow=hidden;rotatable=0;points=[[0,0.5],[1,0.5]];portConstraint=eastwest;whiteSpace=wrap;html=1;" vertex="1" parent="ep3cFhaID-RFhSAYfXqb-32">
          <mxGeometry y="204" width="280" height="24" as="geometry" />
        </mxCell>
        <mxCell id="ep3cFhaID-RFhSAYfXqb-40" value="+&lt;span style=&quot;white-space: pre;&quot;&gt;&#x9;&lt;/span&gt;Update() : void" style="text;strokeColor=#d6b656;fillColor=#fff2cc;align=left;verticalAlign=top;spacingLeft=4;spacingRight=4;overflow=hidden;rotatable=0;points=[[0,0.5],[1,0.5]];portConstraint=eastwest;whiteSpace=wrap;html=1;" vertex="1" parent="ep3cFhaID-RFhSAYfXqb-32">
          <mxGeometry y="228" width="280" height="24" as="geometry" />
        </mxCell>
        <mxCell id="ep3cFhaID-RFhSAYfXqb-41" value="+&lt;span style=&quot;white-space: pre;&quot;&gt;&#x9;&lt;/span&gt;Delete() : void" style="text;strokeColor=#d6b656;fillColor=#fff2cc;align=left;verticalAlign=top;spacingLeft=4;spacingRight=4;overflow=hidden;rotatable=0;points=[[0,0.5],[1,0.5]];portConstraint=eastwest;whiteSpace=wrap;html=1;" vertex="1" parent="ep3cFhaID-RFhSAYfXqb-32">
          <mxGeometry y="252" width="280" height="24" as="geometry" />
        </mxCell>
        <mxCell id="ep3cFhaID-RFhSAYfXqb-42" value="+ &lt;span style=&quot;white-space: pre;&quot;&gt;&#x9;&lt;/span&gt;ToString() : string" style="text;strokeColor=#d6b656;fillColor=#fff2cc;align=left;verticalAlign=top;spacingLeft=4;spacingRight=4;overflow=hidden;rotatable=0;points=[[0,0.5],[1,0.5]];portConstraint=eastwest;whiteSpace=wrap;html=1;" vertex="1" parent="ep3cFhaID-RFhSAYfXqb-32">
          <mxGeometry y="276" width="280" height="24" as="geometry" />
        </mxCell>
        <mxCell id="ep3cFhaID-RFhSAYfXqb-43" value="&lt;div&gt;+&lt;span style=&quot;white-space: pre;&quot;&gt;&#x9;&lt;/span&gt;ValeurCorrecte(): bool&lt;br&gt;&lt;/div&gt;" style="text;strokeColor=#d6b656;fillColor=#fff2cc;align=left;verticalAlign=top;spacingLeft=4;spacingRight=4;overflow=hidden;rotatable=0;points=[[0,0.5],[1,0.5]];portConstraint=eastwest;whiteSpace=wrap;html=1;" vertex="1" parent="ep3cFhaID-RFhSAYfXqb-32">
          <mxGeometry y="300" width="280" height="24" as="geometry" />
        </mxCell>
        <mxCell id="ep3cFhaID-RFhSAYfXqb-44" value="" style="endArrow=none;html=1;edgeStyle=orthogonalEdgeStyle;rounded=0;entryX=0.5;entryY=0;entryDx=0;entryDy=0;exitX=0.75;exitY=1;exitDx=0;exitDy=0;" edge="1" parent="1" source="HMEKJtXv6nUC9A5PgHyP-1" target="ep3cFhaID-RFhSAYfXqb-32">
          <mxGeometry relative="1" as="geometry">
            <mxPoint x="405" y="270" as="sourcePoint" />
            <mxPoint x="455" y="470" as="targetPoint" />
            <Array as="points">
              <mxPoint x="653" y="320" />
              <mxPoint x="780" y="320" />
            </Array>
          </mxGeometry>
        </mxCell>
        <mxCell id="ep3cFhaID-RFhSAYfXqb-45" value="parent" style="edgeLabel;resizable=0;html=1;align=left;verticalAlign=bottom;" connectable="0" vertex="1" parent="ep3cFhaID-RFhSAYfXqb-44">
          <mxGeometry x="-1" relative="1" as="geometry">
            <mxPoint x="5" y="20" as="offset" />
          </mxGeometry>
        </mxCell>
        <mxCell id="ep3cFhaID-RFhSAYfXqb-46" value="child" style="edgeLabel;resizable=0;html=1;align=right;verticalAlign=bottom;" connectable="0" vertex="1" parent="ep3cFhaID-RFhSAYfXqb-44">
          <mxGeometry x="1" relative="1" as="geometry">
            <mxPoint x="-5" as="offset" />
          </mxGeometry>
        </mxCell>
        <mxCell id="ep3cFhaID-RFhSAYfXqb-47" value="Cl_Utilisateur" style="swimlane;fontStyle=1;align=center;verticalAlign=top;childLayout=stackLayout;horizontal=1;startSize=26;horizontalStack=0;resizeParent=1;resizeParentMax=0;resizeLast=0;collapsible=1;marginBottom=0;whiteSpace=wrap;html=1;fillColor=#d5e8d4;strokeColor=#82b366;" vertex="1" parent="1">
          <mxGeometry x="961" y="460" width="270" height="288" as="geometry" />
        </mxCell>
        <mxCell id="ep3cFhaID-RFhSAYfXqb-49" value="&lt;div&gt;-&lt;span style=&quot;white-space: pre;&quot;&gt;&#x9;NomUtilisateur&lt;/span&gt;: string&lt;/div&gt;" style="text;strokeColor=none;fillColor=none;align=left;verticalAlign=top;spacingLeft=4;spacingRight=4;overflow=hidden;rotatable=0;points=[[0,0.5],[1,0.5]];portConstraint=eastwest;whiteSpace=wrap;html=1;" vertex="1" parent="ep3cFhaID-RFhSAYfXqb-47">
          <mxGeometry y="26" width="270" height="24" as="geometry" />
        </mxCell>
        <mxCell id="ep3cFhaID-RFhSAYfXqb-48" value="&lt;div&gt;-&lt;span style=&quot;white-space: pre;&quot;&gt;&#x9;MotDePasse&lt;/span&gt;: string&lt;br&gt;&lt;/div&gt;&lt;div&gt;&lt;br&gt;&lt;/div&gt;" style="text;strokeColor=none;fillColor=none;align=left;verticalAlign=top;spacingLeft=4;spacingRight=4;overflow=hidden;rotatable=0;points=[[0,0.5],[1,0.5]];portConstraint=eastwest;whiteSpace=wrap;html=1;" vertex="1" parent="ep3cFhaID-RFhSAYfXqb-47">
          <mxGeometry y="50" width="270" height="24" as="geometry" />
        </mxCell>
        <mxCell id="ep3cFhaID-RFhSAYfXqb-50" value="" style="line;strokeWidth=1;fillColor=none;align=left;verticalAlign=middle;spacingTop=-1;spacingLeft=3;spacingRight=3;rotatable=0;labelPosition=right;points=[];portConstraint=eastwest;strokeColor=inherit;" vertex="1" parent="ep3cFhaID-RFhSAYfXqb-47">
          <mxGeometry y="74" width="270" height="8" as="geometry" />
        </mxCell>
        <mxCell id="ep3cFhaID-RFhSAYfXqb-51" value="&lt;div&gt;+&lt;span style=&quot;white-space: pre;&quot;&gt;&#x9;Cl_Utilisateur(string NomUtilisateurRecu, &lt;/span&gt;&lt;/div&gt;&lt;div&gt;&lt;span style=&quot;white-space: pre;&quot;&gt;string MotDePasseRecu) : void&lt;/span&gt;&lt;/div&gt;" style="text;strokeColor=#82b366;fillColor=#d5e8d4;align=left;verticalAlign=top;spacingLeft=4;spacingRight=4;overflow=hidden;rotatable=0;points=[[0,0.5],[1,0.5]];portConstraint=eastwest;whiteSpace=wrap;html=1;" vertex="1" parent="ep3cFhaID-RFhSAYfXqb-47">
          <mxGeometry y="82" width="270" height="38" as="geometry" />
        </mxCell>
        <mxCell id="ep3cFhaID-RFhSAYfXqb-59" value="+&lt;span style=&quot;white-space: pre;&quot;&gt;&#x9;HachSHA256&lt;/span&gt;(chaine string) : string" style="text;strokeColor=#d6b656;fillColor=#fff2cc;align=left;verticalAlign=top;spacingLeft=4;spacingRight=4;overflow=hidden;rotatable=0;points=[[0,0.5],[1,0.5]];portConstraint=eastwest;whiteSpace=wrap;html=1;" vertex="1" parent="ep3cFhaID-RFhSAYfXqb-47">
          <mxGeometry y="120" width="270" height="24" as="geometry" />
        </mxCell>
        <mxCell id="ep3cFhaID-RFhSAYfXqb-60" value="+&lt;span style=&quot;white-space: pre;&quot;&gt;&#x9;utilisateurConnexion&lt;/span&gt;() : bool" style="text;strokeColor=#d6b656;fillColor=#fff2cc;align=left;verticalAlign=top;spacingLeft=4;spacingRight=4;overflow=hidden;rotatable=0;points=[[0,0.5],[1,0.5]];portConstraint=eastwest;whiteSpace=wrap;html=1;" vertex="1" parent="ep3cFhaID-RFhSAYfXqb-47">
          <mxGeometry y="144" width="270" height="24" as="geometry" />
        </mxCell>
        <mxCell id="ep3cFhaID-RFhSAYfXqb-54" value="+&lt;span style=&quot;white-space: pre;&quot;&gt;&#x9;&lt;/span&gt;Insert() : void" style="text;strokeColor=#d6b656;fillColor=#fff2cc;align=left;verticalAlign=top;spacingLeft=4;spacingRight=4;overflow=hidden;rotatable=0;points=[[0,0.5],[1,0.5]];portConstraint=eastwest;whiteSpace=wrap;html=1;" vertex="1" parent="ep3cFhaID-RFhSAYfXqb-47">
          <mxGeometry y="168" width="270" height="24" as="geometry" />
        </mxCell>
        <mxCell id="ep3cFhaID-RFhSAYfXqb-55" value="+&lt;span style=&quot;white-space: pre;&quot;&gt;&#x9;&lt;/span&gt;Update() : void" style="text;strokeColor=#d6b656;fillColor=#fff2cc;align=left;verticalAlign=top;spacingLeft=4;spacingRight=4;overflow=hidden;rotatable=0;points=[[0,0.5],[1,0.5]];portConstraint=eastwest;whiteSpace=wrap;html=1;" vertex="1" parent="ep3cFhaID-RFhSAYfXqb-47">
          <mxGeometry y="192" width="270" height="24" as="geometry" />
        </mxCell>
        <mxCell id="ep3cFhaID-RFhSAYfXqb-56" value="+&lt;span style=&quot;white-space: pre;&quot;&gt;&#x9;&lt;/span&gt;Delete() : void" style="text;strokeColor=#d6b656;fillColor=#fff2cc;align=left;verticalAlign=top;spacingLeft=4;spacingRight=4;overflow=hidden;rotatable=0;points=[[0,0.5],[1,0.5]];portConstraint=eastwest;whiteSpace=wrap;html=1;" vertex="1" parent="ep3cFhaID-RFhSAYfXqb-47">
          <mxGeometry y="216" width="270" height="24" as="geometry" />
        </mxCell>
        <mxCell id="ep3cFhaID-RFhSAYfXqb-57" value="+ &lt;span style=&quot;white-space: pre;&quot;&gt;&#x9;&lt;/span&gt;ToString() : string" style="text;strokeColor=#d6b656;fillColor=#fff2cc;align=left;verticalAlign=top;spacingLeft=4;spacingRight=4;overflow=hidden;rotatable=0;points=[[0,0.5],[1,0.5]];portConstraint=eastwest;whiteSpace=wrap;html=1;" vertex="1" parent="ep3cFhaID-RFhSAYfXqb-47">
          <mxGeometry y="240" width="270" height="24" as="geometry" />
        </mxCell>
        <mxCell id="ep3cFhaID-RFhSAYfXqb-58" value="&lt;div&gt;+&lt;span style=&quot;white-space: pre;&quot;&gt;&#x9;&lt;/span&gt;ValeurCorrecte(): bool&lt;br&gt;&lt;/div&gt;" style="text;strokeColor=#d6b656;fillColor=#fff2cc;align=left;verticalAlign=top;spacingLeft=4;spacingRight=4;overflow=hidden;rotatable=0;points=[[0,0.5],[1,0.5]];portConstraint=eastwest;whiteSpace=wrap;html=1;" vertex="1" parent="ep3cFhaID-RFhSAYfXqb-47">
          <mxGeometry y="264" width="270" height="24" as="geometry" />
        </mxCell>
      </root>
    </mxGraphModel>
  </diagram>
</mxfile>
